<svg width="1247" height="1247" fill="none" xmlns="http://www.w3.org/2000/svg"><path d="M346.666 952.708a246.906 246.906 0 1 1 0-493.812v493.812ZM900.334 952.708a246.894 246.894 0 0 0 174.586-72.316 246.888 246.888 0 0 0 72.32-174.59 246.888 246.888 0 0 0-72.32-174.59 246.898 246.898 0 0 0-174.586-72.316v493.812Z" fill="#ffffff"/><path d="M259.376 498.8c0-481.51 733.236-502.675 733.236 0" stroke="#ffffff" stroke-width="18"/><path d="m618.512 1129.78 338.501-79.38V902.828" stroke="#ffffff" stroke-width="15" stroke-linecap="round"/><path d="m771.988 1028.78-173.399 32.5c-33.074 6.19-54.86 38.03-48.661 71.1 6.198 33.08 38.035 54.86 71.108 48.67l173.4-32.5c33.073-6.2 54.859-38.04 48.661-71.11-6.199-33.08-38.036-54.86-71.109-48.66Z" fill="#ffffff"/></svg>